<mxfile host="app.diagrams.net" agent="Mozilla/5.0 (X11; Linux x86_64) AppleWebKit/537.36 (KHTML, like Gecko) Chrome/140.0.0.0 Safari/537.36" version="28.2.3" pages="2">
  <diagram name="Factory Method" id="1bSf70Xb57m88bU0hGH6">
    <mxGraphModel dx="1488" dy="959" grid="1" gridSize="10" guides="1" tooltips="1" connect="1" arrows="1" fold="1" page="1" pageScale="1" pageWidth="900" pageHeight="1600" math="0" shadow="0">
      <root>
        <mxCell id="0" />
        <mxCell id="1" parent="0" />
        <mxCell id="4KdJjeXR975HyZ6SooDI-1" value="Creator" style="swimlane;fontStyle=1;align=center;verticalAlign=top;childLayout=stackLayout;horizontal=1;startSize=26;horizontalStack=0;resizeParent=1;resizeParentMax=0;resizeLast=0;collapsible=1;marginBottom=0;whiteSpace=wrap;html=1;" vertex="1" parent="1">
          <mxGeometry x="320" y="370" width="160" height="112" as="geometry" />
        </mxCell>
        <mxCell id="4KdJjeXR975HyZ6SooDI-2" value="..." style="text;strokeColor=none;fillColor=none;align=left;verticalAlign=top;spacingLeft=4;spacingRight=4;overflow=hidden;rotatable=0;points=[[0,0.5],[1,0.5]];portConstraint=eastwest;whiteSpace=wrap;html=1;" vertex="1" parent="4KdJjeXR975HyZ6SooDI-1">
          <mxGeometry y="26" width="160" height="26" as="geometry" />
        </mxCell>
        <mxCell id="4KdJjeXR975HyZ6SooDI-3" value="" style="line;strokeWidth=1;fillColor=none;align=left;verticalAlign=middle;spacingTop=-1;spacingLeft=3;spacingRight=3;rotatable=0;labelPosition=right;points=[];portConstraint=eastwest;strokeColor=inherit;" vertex="1" parent="4KdJjeXR975HyZ6SooDI-1">
          <mxGeometry y="52" width="160" height="8" as="geometry" />
        </mxCell>
        <mxCell id="4KdJjeXR975HyZ6SooDI-4" value="+ someOperation()" style="text;strokeColor=none;fillColor=none;align=left;verticalAlign=top;spacingLeft=4;spacingRight=4;overflow=hidden;rotatable=0;points=[[0,0.5],[1,0.5]];portConstraint=eastwest;whiteSpace=wrap;html=1;" vertex="1" parent="4KdJjeXR975HyZ6SooDI-1">
          <mxGeometry y="60" width="160" height="26" as="geometry" />
        </mxCell>
        <mxCell id="4KdJjeXR975HyZ6SooDI-5" value="+ createProduct(): Product" style="text;strokeColor=none;fillColor=none;align=left;verticalAlign=top;spacingLeft=4;spacingRight=4;overflow=hidden;rotatable=0;points=[[0,0.5],[1,0.5]];portConstraint=eastwest;whiteSpace=wrap;html=1;" vertex="1" parent="4KdJjeXR975HyZ6SooDI-1">
          <mxGeometry y="86" width="160" height="26" as="geometry" />
        </mxCell>
        <mxCell id="4KdJjeXR975HyZ6SooDI-6" value="&lt;p style=&quot;margin:0px;margin-top:4px;text-align:center;&quot;&gt;&lt;i&gt;&amp;lt;&amp;lt;Interface&amp;gt;&amp;gt;&lt;/i&gt;&lt;br&gt;&lt;b&gt;Product&lt;/b&gt;&lt;/p&gt;&lt;hr size=&quot;1&quot; style=&quot;border-style:solid;&quot;&gt;&lt;p style=&quot;margin:0px;margin-left:4px;&quot;&gt;+ doStuff()&lt;/p&gt;" style="verticalAlign=top;align=left;overflow=fill;html=1;whiteSpace=wrap;" vertex="1" parent="1">
          <mxGeometry x="710" y="374" width="80" height="70" as="geometry" />
        </mxCell>
        <mxCell id="4KdJjeXR975HyZ6SooDI-7" style="edgeStyle=orthogonalEdgeStyle;rounded=0;orthogonalLoop=1;jettySize=auto;html=1;endArrow=block;endFill=0;" edge="1" parent="1" source="4KdJjeXR975HyZ6SooDI-8" target="4KdJjeXR975HyZ6SooDI-1">
          <mxGeometry relative="1" as="geometry" />
        </mxCell>
        <mxCell id="4KdJjeXR975HyZ6SooDI-8" value="ConcreteCreatorA" style="swimlane;fontStyle=1;align=center;verticalAlign=top;childLayout=stackLayout;horizontal=1;startSize=26;horizontalStack=0;resizeParent=1;resizeParentMax=0;resizeLast=0;collapsible=1;marginBottom=0;whiteSpace=wrap;html=1;" vertex="1" parent="1">
          <mxGeometry x="200" y="530" width="160" height="86" as="geometry" />
        </mxCell>
        <mxCell id="4KdJjeXR975HyZ6SooDI-9" value="..." style="text;strokeColor=none;fillColor=none;align=left;verticalAlign=top;spacingLeft=4;spacingRight=4;overflow=hidden;rotatable=0;points=[[0,0.5],[1,0.5]];portConstraint=eastwest;whiteSpace=wrap;html=1;" vertex="1" parent="4KdJjeXR975HyZ6SooDI-8">
          <mxGeometry y="26" width="160" height="26" as="geometry" />
        </mxCell>
        <mxCell id="4KdJjeXR975HyZ6SooDI-10" value="" style="line;strokeWidth=1;fillColor=none;align=left;verticalAlign=middle;spacingTop=-1;spacingLeft=3;spacingRight=3;rotatable=0;labelPosition=right;points=[];portConstraint=eastwest;strokeColor=inherit;" vertex="1" parent="4KdJjeXR975HyZ6SooDI-8">
          <mxGeometry y="52" width="160" height="8" as="geometry" />
        </mxCell>
        <mxCell id="4KdJjeXR975HyZ6SooDI-11" value="+ createProduct(): Product" style="text;strokeColor=none;fillColor=none;align=left;verticalAlign=top;spacingLeft=4;spacingRight=4;overflow=hidden;rotatable=0;points=[[0,0.5],[1,0.5]];portConstraint=eastwest;whiteSpace=wrap;html=1;" vertex="1" parent="4KdJjeXR975HyZ6SooDI-8">
          <mxGeometry y="60" width="160" height="26" as="geometry" />
        </mxCell>
        <mxCell id="4KdJjeXR975HyZ6SooDI-12" style="edgeStyle=orthogonalEdgeStyle;rounded=0;orthogonalLoop=1;jettySize=auto;html=1;endArrow=block;endFill=0;" edge="1" parent="1" source="4KdJjeXR975HyZ6SooDI-13" target="4KdJjeXR975HyZ6SooDI-1">
          <mxGeometry relative="1" as="geometry" />
        </mxCell>
        <mxCell id="4KdJjeXR975HyZ6SooDI-13" value="ConcreteCreatorB" style="swimlane;fontStyle=1;align=center;verticalAlign=top;childLayout=stackLayout;horizontal=1;startSize=26;horizontalStack=0;resizeParent=1;resizeParentMax=0;resizeLast=0;collapsible=1;marginBottom=0;whiteSpace=wrap;html=1;" vertex="1" parent="1">
          <mxGeometry x="430" y="530" width="160" height="86" as="geometry" />
        </mxCell>
        <mxCell id="4KdJjeXR975HyZ6SooDI-14" value="..." style="text;strokeColor=none;fillColor=none;align=left;verticalAlign=top;spacingLeft=4;spacingRight=4;overflow=hidden;rotatable=0;points=[[0,0.5],[1,0.5]];portConstraint=eastwest;whiteSpace=wrap;html=1;" vertex="1" parent="4KdJjeXR975HyZ6SooDI-13">
          <mxGeometry y="26" width="160" height="26" as="geometry" />
        </mxCell>
        <mxCell id="4KdJjeXR975HyZ6SooDI-15" value="" style="line;strokeWidth=1;fillColor=none;align=left;verticalAlign=middle;spacingTop=-1;spacingLeft=3;spacingRight=3;rotatable=0;labelPosition=right;points=[];portConstraint=eastwest;strokeColor=inherit;" vertex="1" parent="4KdJjeXR975HyZ6SooDI-13">
          <mxGeometry y="52" width="160" height="8" as="geometry" />
        </mxCell>
        <mxCell id="4KdJjeXR975HyZ6SooDI-16" value="+ createProduct(): Product" style="text;strokeColor=none;fillColor=none;align=left;verticalAlign=top;spacingLeft=4;spacingRight=4;overflow=hidden;rotatable=0;points=[[0,0.5],[1,0.5]];portConstraint=eastwest;whiteSpace=wrap;html=1;" vertex="1" parent="4KdJjeXR975HyZ6SooDI-13">
          <mxGeometry y="60" width="160" height="26" as="geometry" />
        </mxCell>
        <mxCell id="4KdJjeXR975HyZ6SooDI-17" style="edgeStyle=orthogonalEdgeStyle;rounded=0;orthogonalLoop=1;jettySize=auto;html=1;endArrow=block;endFill=0;dashed=1;" edge="1" parent="1" source="4KdJjeXR975HyZ6SooDI-18" target="4KdJjeXR975HyZ6SooDI-6">
          <mxGeometry relative="1" as="geometry" />
        </mxCell>
        <mxCell id="4KdJjeXR975HyZ6SooDI-18" value="&lt;b&gt;Concrete&lt;/b&gt;&lt;div&gt;&lt;b&gt;ProductA&lt;/b&gt;&lt;/div&gt;" style="html=1;whiteSpace=wrap;" vertex="1" parent="1">
          <mxGeometry x="650" y="490" width="70" height="50" as="geometry" />
        </mxCell>
        <mxCell id="4KdJjeXR975HyZ6SooDI-19" style="edgeStyle=orthogonalEdgeStyle;rounded=0;orthogonalLoop=1;jettySize=auto;html=1;endArrow=block;endFill=0;dashed=1;" edge="1" parent="1" source="4KdJjeXR975HyZ6SooDI-20" target="4KdJjeXR975HyZ6SooDI-6">
          <mxGeometry relative="1" as="geometry" />
        </mxCell>
        <mxCell id="4KdJjeXR975HyZ6SooDI-20" value="&lt;b&gt;Concrete&lt;/b&gt;&lt;div&gt;&lt;b&gt;ProductB&lt;/b&gt;&lt;/div&gt;" style="html=1;whiteSpace=wrap;" vertex="1" parent="1">
          <mxGeometry x="770" y="490" width="70" height="50" as="geometry" />
        </mxCell>
        <mxCell id="4KdJjeXR975HyZ6SooDI-21" style="edgeStyle=orthogonalEdgeStyle;rounded=0;orthogonalLoop=1;jettySize=auto;html=1;endArrow=open;endFill=0;dashed=1;" edge="1" parent="1" source="4KdJjeXR975HyZ6SooDI-2" target="4KdJjeXR975HyZ6SooDI-6">
          <mxGeometry relative="1" as="geometry" />
        </mxCell>
        <mxCell id="4KdJjeXR975HyZ6SooDI-22" style="edgeStyle=orthogonalEdgeStyle;rounded=0;orthogonalLoop=1;jettySize=auto;html=1;endArrow=none;endFill=0;dashed=1;" edge="1" parent="1" source="4KdJjeXR975HyZ6SooDI-23" target="4KdJjeXR975HyZ6SooDI-8">
          <mxGeometry relative="1" as="geometry">
            <Array as="points">
              <mxPoint x="280" y="630" />
              <mxPoint x="280" y="630" />
            </Array>
          </mxGeometry>
        </mxCell>
        <mxCell id="4KdJjeXR975HyZ6SooDI-23" value="&lt;b&gt;return new &lt;/b&gt;ConcreteProductA" style="shape=note;whiteSpace=wrap;html=1;backgroundOutline=1;darkOpacity=0.05;size=16;align=left;" vertex="1" parent="1">
          <mxGeometry x="185" y="660" width="190" height="30" as="geometry" />
        </mxCell>
        <mxCell id="4KdJjeXR975HyZ6SooDI-24" value="Product p=createProduct()&lt;div&gt;p.doStuff()&lt;/div&gt;" style="shape=note;whiteSpace=wrap;html=1;backgroundOutline=1;darkOpacity=0.05;size=16;align=left;" vertex="1" parent="1">
          <mxGeometry x="100" y="290" width="190" height="30" as="geometry" />
        </mxCell>
        <mxCell id="4KdJjeXR975HyZ6SooDI-25" style="edgeStyle=orthogonalEdgeStyle;rounded=0;orthogonalLoop=1;jettySize=auto;html=1;endArrow=none;endFill=0;dashed=1;" edge="1" parent="1" source="4KdJjeXR975HyZ6SooDI-1" target="4KdJjeXR975HyZ6SooDI-24">
          <mxGeometry relative="1" as="geometry">
            <mxPoint x="160" y="414" as="sourcePoint" />
            <mxPoint x="160" y="370" as="targetPoint" />
            <Array as="points" />
          </mxGeometry>
        </mxCell>
      </root>
    </mxGraphModel>
  </diagram>
  <diagram id="im_RlV2jzZaO9WfDk8jA" name="Abstract Factory">
    <mxGraphModel dx="1488" dy="959" grid="1" gridSize="10" guides="1" tooltips="1" connect="1" arrows="1" fold="1" page="1" pageScale="1" pageWidth="900" pageHeight="1600" math="0" shadow="0">
      <root>
        <mxCell id="0" />
        <mxCell id="1" parent="0" />
      </root>
    </mxGraphModel>
  </diagram>
</mxfile>
